<svg xmlns="http://www.w3.org/2000/svg" viewBox="0 0 400 320" width="400" height="320" role="img" aria-label="正六邊形 ABCDEF 與中心 O，三條主對角線">
<rect width="400" height="320" fill="#fff"/>
<polygon points="300.0,150.0 245.0,54.7 135.0,54.7 80.0,150.0 135.0,245.3 245.0,245.3" fill="none" stroke="#111" stroke-width="2"/>
<g fill="none" stroke="#111" stroke-width="1.6"><line x1="300.0" y1="150.0" x2="80.0" y2="150.0"/><line x1="245.0" y1="54.7" x2="135.0" y2="245.3"/><line x1="135.0" y1="54.7" x2="245.0" y2="245.3"/></g>
<g fill="#111"><circle cx="300.0" cy="150.0" r="3"/><circle cx="245.0" cy="54.7" r="3"/><circle cx="135.0" cy="54.7" r="3"/><circle cx="80.0" cy="150.0" r="3"/><circle cx="135.0" cy="245.3" r="3"/><circle cx="245.0" cy="245.3" r="3"/><circle cx="190" cy="150" r="3"/></g>
<g font-family="Georgia,serif" font-style="italic" font-size="17" fill="#111"><text x="310" y="156">C</text><text x="243" y="45">D</text><text x="119" y="45">E</text><text x="58" y="156">F</text><text x="129" y="267">A</text><text x="243" y="267">B</text>
 <text x="184" y="172">O</text></g></svg>