<svg xmlns="http://www.w3.org/2000/svg" viewBox="0 0 470 390" width="470" height="390"><rect width="470" height="390" fill="#fff"/>
<polygon points="48.0,80.0 74.0,80.0 87.0,71.0 61.0,71.0" fill="#f0f0f0" stroke="#111" stroke-width="1.1" stroke-linejoin="round"/>
<polygon points="74.0,106.0 74.0,80.0 87.0,71.0 87.0,97.0" fill="#dcdcdc" stroke="#111" stroke-width="1.1" stroke-linejoin="round"/>
<polygon points="74.0,106.0 100.0,106.0 113.0,97.0 87.0,97.0" fill="#f0f0f0" stroke="#111" stroke-width="1.1" stroke-linejoin="round"/>
<polygon points="100.0,132.0 100.0,106.0 113.0,97.0 113.0,123.0" fill="#dcdcdc" stroke="#111" stroke-width="1.1" stroke-linejoin="round"/>
<polygon points="100.0,132.0 126.0,132.0 139.0,123.0 113.0,123.0" fill="#f0f0f0" stroke="#111" stroke-width="1.1" stroke-linejoin="round"/>
<polygon points="126.0,158.0 126.0,132.0 139.0,123.0 139.0,149.0" fill="#dcdcdc" stroke="#111" stroke-width="1.1" stroke-linejoin="round"/>
<polygon points="126.0,158.0 152.0,158.0 165.0,149.0 139.0,149.0" fill="#f0f0f0" stroke="#111" stroke-width="1.1" stroke-linejoin="round"/>
<polygon points="152.0,184.0 152.0,158.0 165.0,149.0 165.0,175.0" fill="#dcdcdc" stroke="#111" stroke-width="1.1" stroke-linejoin="round"/>
<polygon points="152.0,184.0 178.0,184.0 191.0,175.0 165.0,175.0" fill="#f0f0f0" stroke="#111" stroke-width="1.1" stroke-linejoin="round"/>
<polygon points="178.0,210.0 178.0,184.0 191.0,175.0 191.0,201.0" fill="#dcdcdc" stroke="#111" stroke-width="1.1" stroke-linejoin="round"/>
<polygon points="178.0,210.0 204.0,210.0 217.0,201.0 191.0,201.0" fill="#f0f0f0" stroke="#111" stroke-width="1.1" stroke-linejoin="round"/>
<polygon points="204.0,236.0 204.0,210.0 217.0,201.0 217.0,227.0" fill="#dcdcdc" stroke="#111" stroke-width="1.1" stroke-linejoin="round"/>
<polygon points="204.0,236.0 230.0,236.0 243.0,227.0 217.0,227.0" fill="#f0f0f0" stroke="#111" stroke-width="1.1" stroke-linejoin="round"/>
<polygon points="230.0,262.0 230.0,236.0 243.0,227.0 243.0,253.0" fill="#dcdcdc" stroke="#111" stroke-width="1.1" stroke-linejoin="round"/>
<polygon points="230.0,262.0 256.0,262.0 269.0,253.0 243.0,253.0" fill="#f0f0f0" stroke="#111" stroke-width="1.1" stroke-linejoin="round"/>
<polygon points="256.0,288.0 256.0,262.0 269.0,253.0 269.0,279.0" fill="#dcdcdc" stroke="#111" stroke-width="1.1" stroke-linejoin="round"/>
<polygon points="256.0,288.0 282.0,288.0 295.0,279.0 269.0,279.0" fill="#f0f0f0" stroke="#111" stroke-width="1.1" stroke-linejoin="round"/>
<polygon points="282.0,314.0 282.0,288.0 295.0,279.0 295.0,305.0" fill="#dcdcdc" stroke="#111" stroke-width="1.1" stroke-linejoin="round"/>
<polygon points="282.0,314.0 308.0,314.0 321.0,305.0 295.0,305.0" fill="#f0f0f0" stroke="#111" stroke-width="1.1" stroke-linejoin="round"/>
<polygon points="308.0,340.0 308.0,314.0 321.0,305.0 321.0,331.0" fill="#dcdcdc" stroke="#111" stroke-width="1.1" stroke-linejoin="round"/>
<polygon points="48.0,340.0 74.0,340.0 74.0,314.0 48.0,314.0" fill="#fff" stroke="#111" stroke-width="1.1" stroke-linejoin="round"/>
<polygon points="74.0,340.0 100.0,340.0 100.0,314.0 74.0,314.0" fill="#fff" stroke="#111" stroke-width="1.1" stroke-linejoin="round"/>
<polygon points="100.0,340.0 126.0,340.0 126.0,314.0 100.0,314.0" fill="#fff" stroke="#111" stroke-width="1.1" stroke-linejoin="round"/>
<polygon points="126.0,340.0 152.0,340.0 152.0,314.0 126.0,314.0" fill="#fff" stroke="#111" stroke-width="1.1" stroke-linejoin="round"/>
<polygon points="152.0,340.0 178.0,340.0 178.0,314.0 152.0,314.0" fill="#fff" stroke="#111" stroke-width="1.1" stroke-linejoin="round"/>
<polygon points="178.0,340.0 204.0,340.0 204.0,314.0 178.0,314.0" fill="#fff" stroke="#111" stroke-width="1.1" stroke-linejoin="round"/>
<polygon points="204.0,340.0 230.0,340.0 230.0,314.0 204.0,314.0" fill="#fff" stroke="#111" stroke-width="1.1" stroke-linejoin="round"/>
<polygon points="230.0,340.0 256.0,340.0 256.0,314.0 230.0,314.0" fill="#fff" stroke="#111" stroke-width="1.1" stroke-linejoin="round"/>
<polygon points="256.0,340.0 282.0,340.0 282.0,314.0 256.0,314.0" fill="#fff" stroke="#111" stroke-width="1.1" stroke-linejoin="round"/>
<polygon points="282.0,340.0 308.0,340.0 308.0,314.0 282.0,314.0" fill="#fff" stroke="#111" stroke-width="1.1" stroke-linejoin="round"/>
<polygon points="48.0,314.0 74.0,314.0 74.0,288.0 48.0,288.0" fill="#fff" stroke="#111" stroke-width="1.1" stroke-linejoin="round"/>
<polygon points="74.0,314.0 100.0,314.0 100.0,288.0 74.0,288.0" fill="#fff" stroke="#111" stroke-width="1.1" stroke-linejoin="round"/>
<polygon points="100.0,314.0 126.0,314.0 126.0,288.0 100.0,288.0" fill="#fff" stroke="#111" stroke-width="1.1" stroke-linejoin="round"/>
<polygon points="126.0,314.0 152.0,314.0 152.0,288.0 126.0,288.0" fill="#fff" stroke="#111" stroke-width="1.1" stroke-linejoin="round"/>
<polygon points="152.0,314.0 178.0,314.0 178.0,288.0 152.0,288.0" fill="#fff" stroke="#111" stroke-width="1.1" stroke-linejoin="round"/>
<polygon points="178.0,314.0 204.0,314.0 204.0,288.0 178.0,288.0" fill="#fff" stroke="#111" stroke-width="1.1" stroke-linejoin="round"/>
<polygon points="204.0,314.0 230.0,314.0 230.0,288.0 204.0,288.0" fill="#fff" stroke="#111" stroke-width="1.1" stroke-linejoin="round"/>
<polygon points="230.0,314.0 256.0,314.0 256.0,288.0 230.0,288.0" fill="#fff" stroke="#111" stroke-width="1.1" stroke-linejoin="round"/>
<polygon points="256.0,314.0 282.0,314.0 282.0,288.0 256.0,288.0" fill="#fff" stroke="#111" stroke-width="1.1" stroke-linejoin="round"/>
<polygon points="48.0,288.0 74.0,288.0 74.0,262.0 48.0,262.0" fill="#fff" stroke="#111" stroke-width="1.1" stroke-linejoin="round"/>
<polygon points="74.0,288.0 100.0,288.0 100.0,262.0 74.0,262.0" fill="#fff" stroke="#111" stroke-width="1.1" stroke-linejoin="round"/>
<polygon points="100.0,288.0 126.0,288.0 126.0,262.0 100.0,262.0" fill="#fff" stroke="#111" stroke-width="1.1" stroke-linejoin="round"/>
<polygon points="126.0,288.0 152.0,288.0 152.0,262.0 126.0,262.0" fill="#fff" stroke="#111" stroke-width="1.1" stroke-linejoin="round"/>
<polygon points="152.0,288.0 178.0,288.0 178.0,262.0 152.0,262.0" fill="#fff" stroke="#111" stroke-width="1.1" stroke-linejoin="round"/>
<polygon points="178.0,288.0 204.0,288.0 204.0,262.0 178.0,262.0" fill="#fff" stroke="#111" stroke-width="1.1" stroke-linejoin="round"/>
<polygon points="204.0,288.0 230.0,288.0 230.0,262.0 204.0,262.0" fill="#fff" stroke="#111" stroke-width="1.1" stroke-linejoin="round"/>
<polygon points="230.0,288.0 256.0,288.0 256.0,262.0 230.0,262.0" fill="#fff" stroke="#111" stroke-width="1.1" stroke-linejoin="round"/>
<polygon points="48.0,262.0 74.0,262.0 74.0,236.0 48.0,236.0" fill="#fff" stroke="#111" stroke-width="1.1" stroke-linejoin="round"/>
<polygon points="74.0,262.0 100.0,262.0 100.0,236.0 74.0,236.0" fill="#fff" stroke="#111" stroke-width="1.1" stroke-linejoin="round"/>
<polygon points="100.0,262.0 126.0,262.0 126.0,236.0 100.0,236.0" fill="#fff" stroke="#111" stroke-width="1.1" stroke-linejoin="round"/>
<polygon points="126.0,262.0 152.0,262.0 152.0,236.0 126.0,236.0" fill="#fff" stroke="#111" stroke-width="1.1" stroke-linejoin="round"/>
<polygon points="152.0,262.0 178.0,262.0 178.0,236.0 152.0,236.0" fill="#fff" stroke="#111" stroke-width="1.1" stroke-linejoin="round"/>
<polygon points="178.0,262.0 204.0,262.0 204.0,236.0 178.0,236.0" fill="#fff" stroke="#111" stroke-width="1.1" stroke-linejoin="round"/>
<polygon points="204.0,262.0 230.0,262.0 230.0,236.0 204.0,236.0" fill="#fff" stroke="#111" stroke-width="1.1" stroke-linejoin="round"/>
<polygon points="48.0,236.0 74.0,236.0 74.0,210.0 48.0,210.0" fill="#fff" stroke="#111" stroke-width="1.1" stroke-linejoin="round"/>
<polygon points="74.0,236.0 100.0,236.0 100.0,210.0 74.0,210.0" fill="#fff" stroke="#111" stroke-width="1.1" stroke-linejoin="round"/>
<polygon points="100.0,236.0 126.0,236.0 126.0,210.0 100.0,210.0" fill="#fff" stroke="#111" stroke-width="1.1" stroke-linejoin="round"/>
<polygon points="126.0,236.0 152.0,236.0 152.0,210.0 126.0,210.0" fill="#fff" stroke="#111" stroke-width="1.1" stroke-linejoin="round"/>
<polygon points="152.0,236.0 178.0,236.0 178.0,210.0 152.0,210.0" fill="#fff" stroke="#111" stroke-width="1.1" stroke-linejoin="round"/>
<polygon points="178.0,236.0 204.0,236.0 204.0,210.0 178.0,210.0" fill="#fff" stroke="#111" stroke-width="1.1" stroke-linejoin="round"/>
<polygon points="48.0,210.0 74.0,210.0 74.0,184.0 48.0,184.0" fill="#fff" stroke="#111" stroke-width="1.1" stroke-linejoin="round"/>
<polygon points="74.0,210.0 100.0,210.0 100.0,184.0 74.0,184.0" fill="#fff" stroke="#111" stroke-width="1.1" stroke-linejoin="round"/>
<polygon points="100.0,210.0 126.0,210.0 126.0,184.0 100.0,184.0" fill="#fff" stroke="#111" stroke-width="1.1" stroke-linejoin="round"/>
<polygon points="126.0,210.0 152.0,210.0 152.0,184.0 126.0,184.0" fill="#fff" stroke="#111" stroke-width="1.1" stroke-linejoin="round"/>
<polygon points="152.0,210.0 178.0,210.0 178.0,184.0 152.0,184.0" fill="#fff" stroke="#111" stroke-width="1.1" stroke-linejoin="round"/>
<polygon points="48.0,184.0 74.0,184.0 74.0,158.0 48.0,158.0" fill="#fff" stroke="#111" stroke-width="1.1" stroke-linejoin="round"/>
<polygon points="74.0,184.0 100.0,184.0 100.0,158.0 74.0,158.0" fill="#fff" stroke="#111" stroke-width="1.1" stroke-linejoin="round"/>
<polygon points="100.0,184.0 126.0,184.0 126.0,158.0 100.0,158.0" fill="#fff" stroke="#111" stroke-width="1.1" stroke-linejoin="round"/>
<polygon points="126.0,184.0 152.0,184.0 152.0,158.0 126.0,158.0" fill="#fff" stroke="#111" stroke-width="1.1" stroke-linejoin="round"/>
<polygon points="48.0,158.0 74.0,158.0 74.0,132.0 48.0,132.0" fill="#fff" stroke="#111" stroke-width="1.1" stroke-linejoin="round"/>
<polygon points="74.0,158.0 100.0,158.0 100.0,132.0 74.0,132.0" fill="#fff" stroke="#111" stroke-width="1.1" stroke-linejoin="round"/>
<polygon points="100.0,158.0 126.0,158.0 126.0,132.0 100.0,132.0" fill="#fff" stroke="#111" stroke-width="1.1" stroke-linejoin="round"/>
<polygon points="48.0,132.0 74.0,132.0 74.0,106.0 48.0,106.0" fill="#fff" stroke="#111" stroke-width="1.1" stroke-linejoin="round"/>
<polygon points="74.0,132.0 100.0,132.0 100.0,106.0 74.0,106.0" fill="#fff" stroke="#111" stroke-width="1.1" stroke-linejoin="round"/>
<polygon points="48.0,106.0 74.0,106.0 74.0,80.0 48.0,80.0" fill="#fff" stroke="#111" stroke-width="1.1" stroke-linejoin="round"/>
</svg>