<svg xmlns="http://www.w3.org/2000/svg" viewBox="0 0 740 430" width="740" height="430" font-family="'Noto Sans TC',sans-serif">
<rect width="740" height="430" fill="#fff"/>
<defs><pattern id="h1" width="6" height="6" patternUnits="userSpaceOnUse"><rect width="6" height="6" fill="#fff"/><line x1="0" y1="3" x2="6" y2="3" stroke="#111" stroke-width="1.6"/></pattern><pattern id="h2" width="7" height="7" patternUnits="userSpaceOnUse"><rect width="7" height="7" fill="#fff"/><rect width="3.5" height="3.5" fill="#111"/><rect x="3.5" y="3.5" width="3.5" height="3.5" fill="#111"/></pattern></defs>
<rect x="14" y="14" width="712" height="372" fill="none" stroke="#111" stroke-width="1.3"/>
<rect x="250" y="40" width="13" height="11" fill="#111111" stroke="#111" stroke-width="0.9"/>
<text x="267" y="50" font-size="13" fill="#111">1950</text>
<rect x="333" y="40" width="13" height="11" fill="url(#h1)" stroke="#111" stroke-width="0.9"/>
<text x="350" y="50" font-size="13" fill="#111">1975</text>
<rect x="416" y="40" width="13" height="11" fill="#c8c8c8" stroke="#111" stroke-width="0.9"/>
<text x="433" y="50" font-size="13" fill="#111">2000</text>
<rect x="499" y="40" width="13" height="11" fill="url(#h2)" stroke="#111" stroke-width="0.9"/>
<text x="516" y="50" font-size="13" fill="#111">2025（預估）</text>
<line x1="110" y1="300.0" x2="700" y2="300.0" stroke="#bbb" stroke-width="0.9"/>
<text x="103" y="304.0" font-size="12" text-anchor="end" fill="#111">0</text>
<line x1="110" y1="272.5" x2="700" y2="272.5" stroke="#bbb" stroke-width="0.9"/>
<text x="103" y="276.5" font-size="12" text-anchor="end" fill="#111">5</text>
<line x1="110" y1="245.0" x2="700" y2="245.0" stroke="#bbb" stroke-width="0.9"/>
<text x="103" y="249.0" font-size="12" text-anchor="end" fill="#111">10</text>
<line x1="110" y1="217.5" x2="700" y2="217.5" stroke="#bbb" stroke-width="0.9"/>
<text x="103" y="221.5" font-size="12" text-anchor="end" fill="#111">15</text>
<line x1="110" y1="190.0" x2="700" y2="190.0" stroke="#bbb" stroke-width="0.9"/>
<text x="103" y="194.0" font-size="12" text-anchor="end" fill="#111">20</text>
<line x1="110" y1="162.5" x2="700" y2="162.5" stroke="#bbb" stroke-width="0.9"/>
<text x="103" y="166.5" font-size="12" text-anchor="end" fill="#111">25</text>
<line x1="110" y1="135.0" x2="700" y2="135.0" stroke="#bbb" stroke-width="0.9"/>
<text x="103" y="139.0" font-size="12" text-anchor="end" fill="#111">30</text>
<line x1="110" y1="107.5" x2="700" y2="107.5" stroke="#bbb" stroke-width="0.9"/>
<text x="103" y="111.5" font-size="12" text-anchor="end" fill="#111">35</text>
<line x1="110" y1="80.0" x2="700" y2="80.0" stroke="#bbb" stroke-width="0.9"/>
<text x="103" y="84.0" font-size="12" text-anchor="end" fill="#111">40</text>
<line x1="110" y1="80" x2="110" y2="300" stroke="#111" stroke-width="1.4"/>
<line x1="110" y1="300" x2="700" y2="300" stroke="#111" stroke-width="1.4"/>
<rect x="115.9" y="294.5" width="10.5" height="5.5" fill="#111111" stroke="#111" stroke-width="0.9"/>
<rect x="128.4" y="289.6" width="10.5" height="10.4" fill="url(#h1)" stroke="#111" stroke-width="0.9"/>
<rect x="140.8" y="260.4" width="10.5" height="39.6" fill="#c8c8c8" stroke="#111" stroke-width="0.9"/>
<rect x="153.3" y="213.1" width="10.5" height="86.9" fill="url(#h2)" stroke="#111" stroke-width="0.9"/>
<text x="142.8" y="320" font-size="14" text-anchor="middle" fill="#111">甲</text>
<rect x="181.5" y="286.2" width="10.5" height="13.8" fill="#111111" stroke="#111" stroke-width="0.9"/>
<rect x="193.9" y="266.4" width="10.5" height="33.6" fill="url(#h1)" stroke="#111" stroke-width="0.9"/>
<rect x="206.4" y="240.1" width="10.5" height="59.9" fill="#c8c8c8" stroke="#111" stroke-width="0.9"/>
<rect x="218.8" y="214.2" width="10.5" height="85.8" fill="url(#h2)" stroke="#111" stroke-width="0.9"/>
<text x="208.3" y="320" font-size="14" text-anchor="middle" fill="#111">開</text>
<text x="208.3" y="337" font-size="14" text-anchor="middle" fill="#111">羅</text>
<rect x="247.0" y="266.4" width="10.5" height="33.6" fill="#111111" stroke="#111" stroke-width="0.9"/>
<rect x="259.5" y="259.9" width="10.5" height="40.1" fill="url(#h1)" stroke="#111" stroke-width="0.9"/>
<rect x="271.9" y="227.4" width="10.5" height="72.6" fill="#c8c8c8" stroke="#111" stroke-width="0.9"/>
<rect x="284.4" y="193.3" width="10.5" height="106.7" fill="url(#h2)" stroke="#111" stroke-width="0.9"/>
<text x="273.9" y="320" font-size="14" text-anchor="middle" fill="#111">乙</text>
<rect x="312.6" y="283.5" width="10.5" height="16.5" fill="#111111" stroke="#111" stroke-width="0.9"/>
<rect x="325.0" y="241.2" width="10.5" height="58.8" fill="url(#h1)" stroke="#111" stroke-width="0.9"/>
<rect x="337.5" y="201.0" width="10.5" height="99.0" fill="#c8c8c8" stroke="#111" stroke-width="0.9"/>
<rect x="349.9" y="184.5" width="10.5" height="115.5" fill="url(#h2)" stroke="#111" stroke-width="0.9"/>
<text x="339.4" y="320" font-size="14" text-anchor="middle" fill="#111">墨</text>
<text x="339.4" y="337" font-size="14" text-anchor="middle" fill="#111">西</text>
<text x="339.4" y="354" font-size="14" text-anchor="middle" fill="#111">哥</text>
<text x="339.4" y="371" font-size="14" text-anchor="middle" fill="#111">城</text>
<rect x="378.1" y="253.8" width="10.5" height="46.2" fill="#111111" stroke="#111" stroke-width="0.9"/>
<rect x="390.6" y="258.8" width="10.5" height="41.2" fill="url(#h1)" stroke="#111" stroke-width="0.9"/>
<rect x="403.0" y="258.2" width="10.5" height="41.8" fill="#c8c8c8" stroke="#111" stroke-width="0.9"/>
<rect x="415.5" y="252.7" width="10.5" height="47.3" fill="url(#h2)" stroke="#111" stroke-width="0.9"/>
<text x="405.0" y="320" font-size="14" text-anchor="middle" fill="#111">丙</text>
<rect x="443.7" y="286.8" width="10.5" height="13.2" fill="#111111" stroke="#111" stroke-width="0.9"/>
<rect x="456.1" y="247.2" width="10.5" height="52.8" fill="url(#h1)" stroke="#111" stroke-width="0.9"/>
<rect x="468.6" y="205.9" width="10.5" height="94.1" fill="#c8c8c8" stroke="#111" stroke-width="0.9"/>
<rect x="481.0" y="182.3" width="10.5" height="117.7" fill="url(#h2)" stroke="#111" stroke-width="0.9"/>
<text x="470.6" y="320" font-size="14" text-anchor="middle" fill="#111">聖</text>
<text x="470.6" y="337" font-size="14" text-anchor="middle" fill="#111">保</text>
<text x="470.6" y="354" font-size="14" text-anchor="middle" fill="#111">羅</text>
<rect x="509.2" y="232.3" width="10.5" height="67.7" fill="#111111" stroke="#111" stroke-width="0.9"/>
<rect x="521.7" y="212.6" width="10.5" height="87.4" fill="url(#h1)" stroke="#111" stroke-width="0.9"/>
<rect x="534.1" y="202.1" width="10.5" height="97.9" fill="#c8c8c8" stroke="#111" stroke-width="0.9"/>
<rect x="546.6" y="186.7" width="10.5" height="113.3" fill="url(#h2)" stroke="#111" stroke-width="0.9"/>
<text x="536.1" y="320" font-size="14" text-anchor="middle" fill="#111">丁</text>
<rect x="574.8" y="284.1" width="10.5" height="15.9" fill="#111111" stroke="#111" stroke-width="0.9"/>
<rect x="587.2" y="260.9" width="10.5" height="39.1" fill="url(#h1)" stroke="#111" stroke-width="0.9"/>
<rect x="599.7" y="211.4" width="10.5" height="88.6" fill="#c8c8c8" stroke="#111" stroke-width="0.9"/>
<rect x="612.2" y="154.8" width="10.5" height="145.2" fill="url(#h2)" stroke="#111" stroke-width="0.9"/>
<text x="601.7" y="320" font-size="14" text-anchor="middle" fill="#111">孟</text>
<text x="601.7" y="337" font-size="14" text-anchor="middle" fill="#111">買</text>
<rect x="640.3" y="237.8" width="10.5" height="62.2" fill="#111111" stroke="#111" stroke-width="0.9"/>
<rect x="652.8" y="153.7" width="10.5" height="146.3" fill="url(#h1)" stroke="#111" stroke-width="0.9"/>
<rect x="665.3" y="110.2" width="10.5" height="189.8" fill="#c8c8c8" stroke="#111" stroke-width="0.9"/>
<rect x="677.7" y="99.8" width="10.5" height="200.2" fill="url(#h2)" stroke="#111" stroke-width="0.9"/>
<text x="667.2" y="320" font-size="14" text-anchor="middle" fill="#111">戊</text>
<text x="58" y="98" font-size="13" text-anchor="middle" fill="#111">都</text>
<text x="58" y="115" font-size="13" text-anchor="middle" fill="#111">市</text>
<text x="58" y="132" font-size="13" text-anchor="middle" fill="#111">人</text>
<text x="58" y="149" font-size="13" text-anchor="middle" fill="#111">口</text>
<text x="58" y="166" font-size="13" text-anchor="middle" fill="#111">數</text>
<text x="58" y="183" font-size="13" text-anchor="middle" fill="#111">（</text>
<text x="58" y="200" font-size="13" text-anchor="middle" fill="#111">百</text>
<text x="58" y="217" font-size="13" text-anchor="middle" fill="#111">萬</text>
<text x="58" y="234" font-size="13" text-anchor="middle" fill="#111">人</text>
<text x="58" y="251" font-size="13" text-anchor="middle" fill="#111">）</text>
<text x="370" y="418" font-size="15" text-anchor="middle" fill="#111">圖 8</text></svg>