<svg xmlns="http://www.w3.org/2000/svg" viewBox="0 0 440 300" width="440" height="300" font-family="serif">
<rect width="440" height="300" fill="#fff"/>
<rect x="70" y="30" width="340" height="210" fill="none" stroke="#222" stroke-width="1.3"/>
<line x1="66" y1="240.0" x2="70" y2="240.0" stroke="#222" stroke-width="1"/>
<text x="63" y="244.0" font-size="11" text-anchor="end">0</text>
<line x1="66" y1="213.8" x2="70" y2="213.8" stroke="#222" stroke-width="1"/>
<text x="63" y="217.8" font-size="11" text-anchor="end">50</text>
<line x1="66" y1="187.5" x2="70" y2="187.5" stroke="#222" stroke-width="1"/>
<text x="63" y="191.5" font-size="11" text-anchor="end">100</text>
<line x1="66" y1="161.2" x2="70" y2="161.2" stroke="#222" stroke-width="1"/>
<text x="63" y="165.2" font-size="11" text-anchor="end">150</text>
<line x1="66" y1="135.0" x2="70" y2="135.0" stroke="#222" stroke-width="1"/>
<text x="63" y="139.0" font-size="11" text-anchor="end">200</text>
<line x1="66" y1="108.8" x2="70" y2="108.8" stroke="#222" stroke-width="1"/>
<text x="63" y="112.8" font-size="11" text-anchor="end">250</text>
<line x1="66" y1="82.5" x2="70" y2="82.5" stroke="#222" stroke-width="1"/>
<text x="63" y="86.5" font-size="11" text-anchor="end">300</text>
<line x1="66" y1="56.2" x2="70" y2="56.2" stroke="#222" stroke-width="1"/>
<text x="63" y="60.2" font-size="11" text-anchor="end">350</text>
<line x1="66" y1="30.0" x2="70" y2="30.0" stroke="#222" stroke-width="1"/>
<text x="63" y="34.0" font-size="11" text-anchor="end">400</text>
<line x1="82.1" y1="240" x2="82.1" y2="244" stroke="#222" stroke-width="1"/>
<text x="82.1" y="258" font-size="11" text-anchor="middle">1918</text>
<line x1="130.7" y1="240" x2="130.7" y2="244" stroke="#222" stroke-width="1"/>
<text x="130.7" y="258" font-size="11" text-anchor="middle">1922</text>
<line x1="179.3" y1="240" x2="179.3" y2="244" stroke="#222" stroke-width="1"/>
<text x="179.3" y="258" font-size="11" text-anchor="middle">1926</text>
<line x1="227.9" y1="240" x2="227.9" y2="244" stroke="#222" stroke-width="1"/>
<text x="227.9" y="258" font-size="11" text-anchor="middle">1930</text>
<line x1="276.4" y1="240" x2="276.4" y2="244" stroke="#222" stroke-width="1"/>
<text x="276.4" y="258" font-size="11" text-anchor="middle">1934</text>
<line x1="325.0" y1="240" x2="325.0" y2="244" stroke="#222" stroke-width="1"/>
<text x="325.0" y="258" font-size="11" text-anchor="middle">1938</text>
<line x1="373.6" y1="240" x2="373.6" y2="244" stroke="#222" stroke-width="1"/>
<text x="373.6" y="258" font-size="11" text-anchor="middle">1942</text>
<text x="12" y="22" font-size="12">（容量：千瓦）</text>
<text x="410" y="275" font-size="12" text-anchor="end">（年代）</text>
<path d="M70.0 231.1 L82.1 230.6 L94.3 230.0 L106.4 229.5 L118.6 224.2 L130.7 223.7 L142.9 223.7 L155.0 223.2 L167.1 223.2 L179.3 222.7 L191.4 221.6 L203.6 219.0 L215.7 216.4 L227.9 213.8 L240.0 206.4 L252.1 204.3 L264.3 153.4 L276.4 152.3 L288.6 151.8 L300.7 150.8 L312.9 127.1 L325.0 119.3 L337.1 108.8 L349.3 102.4 L361.4 82.5 L373.6 61.5 L385.7 44.7 L397.9 37.9" fill="none" stroke="#222" stroke-width="2.2"/>
<text x="220" y="288" font-size="14" text-anchor="middle">圖二</text>
</svg>