<svg xmlns="http://www.w3.org/2000/svg" viewBox="0 0 500 320" width="500" height="320" font-family="sans-serif">
  <rect width="500" height="320" fill="#fff"/>
  <line x1="60" y1="230.0" x2="420" y2="230.0" stroke="#ddd"/>
  <text x="54" y="234.0" font-size="11" text-anchor="end">0</text>
  <line x1="60" y1="190.0" x2="420" y2="190.0" stroke="#ddd"/>
  <text x="54" y="194.0" font-size="11" text-anchor="end">10</text>
  <line x1="60" y1="150.0" x2="420" y2="150.0" stroke="#ddd"/>
  <text x="54" y="154.0" font-size="11" text-anchor="end">20</text>
  <line x1="60" y1="110.0" x2="420" y2="110.0" stroke="#ddd"/>
  <text x="54" y="114.0" font-size="11" text-anchor="end">30</text>
  <line x1="60" y1="70.0" x2="420" y2="70.0" stroke="#ddd"/>
  <text x="54" y="74.0" font-size="11" text-anchor="end">40</text>
  <line x1="60" y1="30.0" x2="420" y2="30.0" stroke="#ddd"/>
  <text x="54" y="34.0" font-size="11" text-anchor="end">50</text>
  <text x="56" y="20" font-size="11">%</text>
  <rect x="68.0" y="216.0" width="26" height="14.0" fill="#c8c8c8" stroke="#333"/>
  <rect x="98.0" y="166.0" width="26" height="64.0" fill="#4a4a4a" stroke="#333"/>
  <text x="96.0" y="250" font-size="14" text-anchor="middle">上</text>
  <rect x="140.0" y="170.0" width="26" height="60.0" fill="#c8c8c8" stroke="#333"/>
  <rect x="170.0" y="86.0" width="26" height="144.0" fill="#4a4a4a" stroke="#333"/>
  <text x="168.0" y="250" font-size="14" text-anchor="middle">中上</text>
  <rect x="212.0" y="182.0" width="26" height="48.0" fill="#c8c8c8" stroke="#333"/>
  <rect x="242.0" y="40.0" width="26" height="190.0" fill="#4a4a4a" stroke="#333"/>
  <text x="240.0" y="250" font-size="14" text-anchor="middle">中</text>
  <rect x="284.0" y="130.0" width="26" height="100.0" fill="#c8c8c8" stroke="#333"/>
  <rect x="314.0" y="224.0" width="26" height="6.0" fill="#4a4a4a" stroke="#333"/>
  <text x="312.0" y="250" font-size="14" text-anchor="middle">中下</text>
  <rect x="356.0" y="48.0" width="26" height="182.0" fill="#c8c8c8" stroke="#333"/>
  <rect x="386.0" y="228.0" width="26" height="2.0" fill="#4a4a4a" stroke="#333"/>
  <text x="384.0" y="250" font-size="14" text-anchor="middle">下</text>
  <line x1="60" y1="30" x2="60" y2="230" stroke="#333" stroke-width="1.4"/>
  <line x1="60" y1="230" x2="420" y2="230" stroke="#333" stroke-width="1.4"/>
  <text x="428" y="250" font-size="12">社會階層</text>
  <rect x="90" y="268" width="14" height="12" fill="#c8c8c8" stroke="#333"/><text x="110" y="278" font-size="12">父親社會階層</text>
  <rect x="230" y="268" width="14" height="12" fill="#4a4a4a" stroke="#333"/><text x="250" y="278" font-size="12">本人社會階層</text>
  <text x="250" y="308" font-size="12" text-anchor="middle" fill="#555">圖五</text>
</svg>
